<?xml version="1.0" encoding="UTF-8"?>
<svg width="506px" height="163px" viewBox="0 0 506 163" version="1.1" xmlns="http://www.w3.org/2000/svg" xmlns:xlink="http://www.w3.org/1999/xlink">
    <!-- Generator: Sketch 52.5 (67469) - http://www.bohemiancoding.com/sketch -->
    <title>JannahsFamilyFriends-text-Logo</title>
    <desc>Created with Sketch.</desc>
    <g id="Page-1" stroke="none" stroke-width="1" fill="none" fill-rule="evenodd">
        <g id="JannahsFamilyFriends-text-Logo">
            <g id="Group-17" transform="translate(0.000000, 0.776000)" fill="#FFFFFF">
                <path d="M46.5035,96.7287 C41.4635,102.8887 33.0635,105.4087 25.5035,105.4087 C16.8235,105.4087 0.5835,102.3287 0.5835,90.5687 C0.5835,85.5287 4.7835,80.7687 9.8235,80.4887 L10.6635,80.4887 C12.9035,80.4887 15.1435,81.6087 17.3835,82.7287 C19.3435,83.8487 21.5835,85.2487 23.8235,85.2487 C30.2635,85.2487 31.1035,77.9687 31.1035,73.2087 L31.1035,20.0097 C31.1035,13.5687 34.7435,8.2487 41.7435,8.2487 C48.7435,8.2487 52.6635,13.5687 52.6635,20.0097 L52.6635,73.2087 C52.6635,81.3287 51.8225,90.2887 46.5035,96.7287" id="Fill-1"></path>
                <path d="M94.9429,49.6892 C85.7029,49.6892 81.2229,58.9292 81.2229,67.0492 C81.2229,75.4492 85.1429,84.9692 94.9429,84.9692 C104.4639,84.9692 109.7829,76.5692 109.7829,67.8892 C109.7829,58.3692 105.5839,49.6892 94.9429,49.6892 M120.1429,104.0092 C115.1029,104.0092 111.7429,100.0892 110.3429,95.6092 C105.3029,101.4892 100.8229,104.2892 92.9829,104.2892 C85.7029,104.2892 78.4229,101.2092 72.8229,96.4492 C64.4229,88.8892 60.7829,78.2492 60.7829,67.3292 C60.7829,56.6892 63.8629,47.4492 71.4229,39.8892 C77.0229,34.2892 84.5839,30.3692 92.7029,30.3692 C100.2629,30.3692 105.0229,33.1692 110.3429,38.4892 C112.3029,34.2892 115.3829,30.9292 120.4229,30.9292 C126.3029,30.9292 130.7829,35.6892 130.7829,41.5692 L130.7829,91.6892 C130.7829,98.1292 126.8629,104.0092 120.1429,104.0092" id="Fill-3"></path>
                <path d="M193.2222,104.009 C186.7822,104.009 182.8622,98.409 182.8622,92.249 L182.8622,61.169 C182.8622,54.169 178.9422,48.289 171.1022,48.289 C164.6612,48.289 159.9022,54.169 159.9022,60.329 L159.9022,92.249 C159.9022,98.689 156.2622,104.009 149.5412,104.009 C143.1022,104.009 139.1822,98.409 139.1822,92.249 L139.1822,42.969 C139.1822,36.809 142.5412,31.209 149.2622,30.929 L149.8222,30.929 C154.3022,30.929 157.6612,34.009 159.3422,38.209 C164.9422,32.889 170.2622,30.649 178.1022,30.649 C184.5412,30.649 190.9822,32.329 196.0222,36.809 C202.1822,42.129 203.5812,48.569 203.5812,56.409 L203.5812,92.249 C203.5812,98.689 199.9422,104.009 193.2222,104.009" id="Fill-5"></path>
                <path d="M266.5826,104.009 C260.1426,104.009 256.2226,98.409 256.2226,92.249 L256.2226,61.169 C256.2226,54.169 252.3026,48.289 244.4626,48.289 C238.0216,48.289 233.2626,54.169 233.2626,60.329 L233.2626,92.249 C233.2626,98.689 229.6226,104.009 222.9016,104.009 C216.4626,104.009 212.5426,98.409 212.5426,92.249 L212.5426,42.969 C212.5426,36.809 215.9016,31.209 222.6226,30.929 L223.1826,30.929 C227.6626,30.929 231.0216,34.009 232.7026,38.209 C238.3026,32.889 243.6226,30.649 251.4626,30.649 C257.9016,30.649 264.3426,32.329 269.3826,36.809 C275.5426,42.129 276.9416,48.569 276.9416,56.409 L276.9416,92.249 C276.9416,98.689 273.3026,104.009 266.5826,104.009" id="Fill-7"></path>
                <path d="M316.4224,49.6892 C307.1824,49.6892 302.7024,58.9292 302.7024,67.0492 C302.7024,75.4492 306.6224,84.9692 316.4224,84.9692 C325.9434,84.9692 331.2624,76.5692 331.2624,67.8892 C331.2624,58.3692 327.0624,49.6892 316.4224,49.6892 M341.6224,104.0092 C336.5824,104.0092 333.2224,100.0892 331.8224,95.6092 C326.7824,101.4892 322.3024,104.2892 314.4624,104.2892 C307.1824,104.2892 299.9024,101.2092 294.3024,96.4492 C285.9024,88.8892 282.2634,78.2492 282.2634,67.3292 C282.2634,56.6892 285.3424,47.4492 292.9024,39.8892 C298.5024,34.2892 306.0634,30.3692 314.1824,30.3692 C321.7424,30.3692 326.5024,33.1692 331.8224,38.4892 C333.7824,34.2892 336.8624,30.9292 341.9024,30.9292 C347.7824,30.9292 352.2624,35.6892 352.2624,41.5692 L352.2624,91.6892 C352.2624,98.1292 348.3424,104.0092 341.6224,104.0092" id="Fill-9"></path>
                <path d="M414.981,104.009 C408.542,104.009 404.622,98.409 404.622,92.249 L404.622,62.289 C404.622,55.009 401.542,48.289 392.861,48.289 C386.141,48.289 381.381,54.449 381.381,60.889 L381.381,92.249 C381.381,98.689 377.742,104.009 371.021,104.009 C364.582,104.009 360.662,98.409 360.662,92.249 L360.662,11.609 C360.662,5.449 364.301,0.129 371.021,0.129 C377.461,0.129 381.381,5.449 381.381,11.609 L381.381,36.529 C386.981,33.169 393.141,30.649 399.861,30.649 C406.582,30.649 413.301,32.609 418.341,37.369 C423.941,42.689 425.341,49.129 425.341,56.689 L425.341,92.249 C425.341,98.689 421.702,104.009 414.981,104.009" id="Fill-11"></path>
                <path d="M456.0015,19.7292 L445.0815,39.6092 C443.4015,42.1292 440.6025,43.8092 437.5225,43.8092 C432.7625,43.8092 428.0015,40.1692 428.0015,35.4092 L428.2815,34.8492 C428.2815,33.4492 428.8425,32.0492 429.4015,30.9292 L440.8815,11.3292 C442.2815,8.8092 445.0815,7.1292 447.8815,7.1292 C452.3615,7.1292 457.1215,10.7692 457.1215,15.5292 C457.1215,16.9292 456.8415,18.3292 456.0015,19.7292" id="Fill-13"></path>
                <path d="M497.44,98.1291 C492.4,102.3291 485.121,104.2891 478.68,104.2891 C470.281,104.2891 451.8,100.3691 451.8,89.1691 C451.8,84.9691 455.72,80.2091 460.201,80.2091 C464.121,80.2091 467.48,82.1691 470.84,83.8491 C473.36,84.9691 476.161,86.0891 478.961,86.0891 C481.48,86.0891 485.121,84.4091 485.121,81.6091 C485.121,77.6891 480.081,76.2891 477.281,75.1691 L471.68,73.2091 C462.161,69.5691 453.76,64.5291 453.76,53.3291 C453.76,47.7291 455.72,42.6891 459.92,38.4891 C464.961,33.1691 472.241,30.3691 479.52,30.3691 C485.961,30.3691 492.4,31.7691 497.72,35.4091 C500.8,37.6491 503.6,40.7291 503.6,44.3691 C503.6,48.5691 499.961,53.8891 495.48,53.8891 L495.201,53.6091 C492.121,53.3291 489.6,51.9291 487.081,50.8091 C484.28,49.6891 481.48,48.5691 478.68,48.5691 C476.44,48.8491 473.92,49.6891 473.64,51.9291 L473.36,52.2091 C473.36,56.1291 481.76,58.6491 484.56,59.4891 C490.161,61.7291 495.76,63.9691 500.24,68.4491 C503.32,71.8091 505.28,76.0091 505.28,80.7691 C505.28,87.2091 502.48,93.6491 497.44,98.1291" id="Fill-15"></path>
            </g>
            <text id="F" font-family="LucidaGrande, Lucida Grande" font-size="54.1312" font-weight="normal" fill="#F1E957">
                <tspan x="60.9316" y="151.916425">F</tspan>
            </text>
            <text id="a" font-family="LucidaGrande, Lucida Grande" font-size="54.1312" font-weight="normal" fill="#F1E957">
                <tspan x="84.9117216" y="151.916425">a</tspan>
            </text>
            <text id="m" font-family="LucidaGrande, Lucida Grande" font-size="54.1312" font-weight="normal" fill="#F1E957">
                <tspan x="115.98303" y="151.916425">m</tspan>
            </text>
            <text id="i" font-family="LucidaGrande, Lucida Grande" font-size="54.1312" font-weight="normal" fill="#F1E957">
                <tspan x="161.99455" y="151.916425">i</tspan>
            </text>
            <text id="l" font-family="LucidaGrande, Lucida Grande" font-size="54.1312" font-weight="normal" fill="#F1E957">
                <tspan x="174.336464" y="151.916425">l</tspan>
            </text>
            <text id="y" font-family="LucidaGrande, Lucida Grande" font-size="54.1312" font-weight="normal" fill="#F1E957">
                <tspan x="187.111427" y="151.916425">y</tspan>
            </text>
            <text id="&amp;" font-family="LucidaGrande, Lucida Grande" font-size="54.1312" font-weight="normal" fill="#F1E957">
                <tspan x="224.461955" y="151.916425">&amp;</tspan>
            </text>
            <text id="-" font-family="LucidaGrande, Lucida Grande" font-size="54.1312" font-weight="normal"></text>
            <text id="F" font-family="LucidaGrande, Lucida Grande" font-size="54.1312" font-weight="normal" fill="#F1E957">
                <tspan x="273.721347" y="151.916425">F</tspan>
            </text>
            <text id="r" font-family="LucidaGrande, Lucida Grande" font-size="54.1312" font-weight="normal" fill="#F1E957">
                <tspan x="297.701469" y="151.916425">r</tspan>
            </text>
            <text id="i" font-family="LucidaGrande, Lucida Grande" font-size="54.1312" font-weight="normal" fill="#F1E957">
                <tspan x="316.322602" y="151.916425">i</tspan>
            </text>
            <text id="e" font-family="LucidaGrande, Lucida Grande" font-size="54.1312" font-weight="normal" fill="#F1E957">
                <tspan x="329.747139" y="151.916425">e</tspan>
            </text>
            <text id="n" font-family="LucidaGrande, Lucida Grande" font-size="54.1312" font-weight="normal" fill="#F1E957">
                <tspan x="359.08625" y="151.916425">n</tspan>
            </text>
            <text id="d" font-family="LucidaGrande, Lucida Grande" font-size="54.1312" font-weight="normal" fill="#F1E957">
                <tspan x="389.616246" y="151.916425">d</tspan>
            </text>
            <text id="s" font-family="LucidaGrande, Lucida Grande" font-size="54.1312" font-weight="normal" fill="#F1E957">
                <tspan x="419.604931" y="151.916425">s</tspan>
            </text>
        </g>
    </g>
</svg>