<svg width="79" height="81" viewBox="0 0 79 81" fill="none" xmlns="http://www.w3.org/2000/svg">
<path fill-rule="evenodd" clip-rule="evenodd" d="M38.7675 4.33059C46.0605 5.08149 53.5095 2.90098 60.1601 5.98305C67.764 9.50682 75.4928 14.672 78.1896 22.5996C80.8966 30.5576 76.1255 38.7009 74.0615 46.8489C71.8123 55.7286 72.2468 65.9752 65.6032 72.2886C58.6631 78.8837 48.105 82.5244 38.7675 80.3885C29.8578 78.3506 26.01 68.2596 19.5877 61.7631C14.5001 56.6167 8.28999 52.8125 5.09181 46.3237C1.49365 39.0233 -1.0977 30.9489 0.463944 22.9626C2.13983 14.3922 6.05143 5.04439 13.9113 1.22112C21.6069 -2.52226 30.253 3.45391 38.7675 4.33059Z" fill="#582EFF" fill-opacity="0.04"/>
</svg>
