<svg width="84" height="93" viewBox="0 0 84 93" fill="none" xmlns="http://www.w3.org/2000/svg">
<path fill-rule="evenodd" clip-rule="evenodd" d="M45.547 0.133679C53.7494 1.10484 58.3347 9.65067 64.9048 14.6803C71.2646 19.549 80.7773 21.5058 83.3858 29.1007C85.9992 36.7101 79.5405 44.1216 77.7079 51.958C75.634 60.8259 77.5873 70.8464 71.9539 77.983C65.5415 86.1063 55.6654 94.728 45.547 92.6999C35.1778 90.6216 34.0467 75.4178 25.8243 68.7372C18.3306 62.6487 3.73419 65.29 0.558024 56.1468C-2.60014 47.0555 8.49449 39.397 12.6115 30.7018C16.0142 23.5152 16.7472 15.067 22.5651 9.6673C28.8062 3.87479 37.1098 -0.865278 45.547 0.133679Z" fill="#582EFF" fill-opacity="0.05"/>
</svg>
