<svg width="712" height="767" viewBox="0 0 712 767" fill="none" xmlns="http://www.w3.org/2000/svg">
<path fill-rule="evenodd" clip-rule="evenodd" d="M434.962 6.27333C500.822 23.7493 528.333 98.6013 576.142 147.176C622.42 194.196 697.835 221.218 710.307 286.029C722.803 350.963 661.437 403.693 637.358 465.282C610.109 534.976 614.411 618.748 560.105 670.207C498.29 728.78 407.607 787.362 327.329 759.054C245.06 730.044 253.501 605.081 194.118 541.15C139.997 482.886 17.7174 487.321 2.40927 409.257C-12.8121 331.636 86.7021 282.309 130.436 216.404C166.582 161.934 182.392 94.086 236.185 56.9676C293.891 17.1487 367.218 -11.7028 434.962 6.27333Z" fill="#63BBE6"/>
</svg>
